<?xml version="1.0" encoding="utf-8"?>
<!-- Generator: Adobe Illustrator 21.0.0, SVG Export Plug-In . SVG Version: 6.00 Build 0)  -->
<svg version="1.1" id="Layer_1" xmlns="http://www.w3.org/2000/svg" xmlns:xlink="http://www.w3.org/1999/xlink" x="0px" y="0px"
	 width="180px" height="172.4px" viewBox="0 0 180 172.4" style="enable-background:new 0 0 180 172.4;" xml:space="preserve">
<g>
	<g>
		<path style="fill:#A90F3D;" d="M163.1,91.7c-10-9.6-25.7-14.1-36.3-14.8v-4.4c0-7.2-5.3-13.1-12-13.1l0,0l0,0
			c-6.6,0-12,5.8-12,13.1v3.9H90H77.1v-3.9c0-7.2-5.3-13.1-12-13.1l0,0l0,0c-6.6,0-12,5.8-12,13.1v4.4C42.6,77.6,26.7,82,16.9,91.7
			C6.2,101.1-0.3,117,0,126.8c1,37.8,31.1,43.6,31.1,43.6c5.2,1.3,10.4,1.8,15.2,2c4.9,0.1,9.6-0.3,14.1-1.1
			c11.8-1.7,21.9-5.3,29.7-10.5l0,0c7.7,5.2,17.9,8.9,29.7,10.5c4.5,0.7,9.1,1.1,14.1,1.1c4.9-0.1,10-0.7,15.2-2
			c0,0,30.1-5.8,31.1-43.6C180.3,116.8,173.8,101.1,163.1,91.7z M47,145.8c-12.7-0.1-23.6-7-21.7-21.4c1.8-13.4,15.7-20.1,28.5-21.4
			c0.1,12.4,5.3,26.9,14.9,38.2C65.7,143.3,57.5,145.8,47,145.8z M90,126.8c-3-1.8-12.8-16.5-12.8-27.4c3.4-0.6,22.5-0.6,25.7,0
			C102.9,110.4,93.2,125,90,126.8z M133,145.8c-10.5,0-18.8-2.5-21.8-4.5c9.4-11.2,14.8-25.9,14.9-38.2c12.8,1.3,26.7,8,28.5,21.4
			C156.6,138.6,145.7,145.7,133,145.8z"/>
		<path style="fill:#A90F3D;" d="M90,47.4c20.1,0,35,3.8,35,3.8l6.6-41.3l-23.8,20.8L90,0L72.1,30.7l-23.8-21L55,51
			C55,51,69.9,47.4,90,47.4L90,47.4L90,47.4z"/>
	</g>
</g>
</svg>
