<svg version="1.1" id="Layer_1" xmlns="http://www.w3.org/2000/svg" xmlns:xlink="http://www.w3.org/1999/xlink" x="0px" y="0px" width="19.4px" height="11.2px" viewBox="0 0 19.4 11.2" style="enable-background:new 0 0 19.4 11.2;" xml:space="preserve">
	<style type="text/css">
		.st0{fill:#4E3922;}
	</style>
	<g id="XMLID_1_">
		<path id="XMLID_2_" class="st0" d="M17.8,3.9c-1.9,2.6-2.2,2.3-0.6,3.8c1.5,1.4,1.9,2.1,1.9,2.2c0,0,0.6,1.1-0.7,1.1l-2.6,0
			c-0.6,0.1-1.3-0.4-1.3-0.4c-1-0.7-1.9-2.4-2.6-2.2c0,0-0.7,0.2-0.7,1.8c0,0.3-0.2,0.5-0.2,0.5S11,11,10.7,11.1H9.5
			C7,11.2,4.7,8.9,4.7,8.9S2.3,6.3,0.1,1.3C0,1,0.1,0.8,0.1,0.8s0.2-0.2,0.6-0.2l2.8,0c0.3,0,0.4,0.2,0.4,0.2s0.2,0.1,0.2,0.3
			c0.5,1.1,1,2.1,1,2.1c1,2.1,1.7,2.4,2.1,2.2c0,0,0.5-0.3,0.4-2.8c0-0.9-0.3-1.3-0.3-1.3C7.1,1,6.7,0.9,6.5,0.9
			c-0.2,0,0.1-0.4,0.4-0.5c0.5-0.2,1.4-0.3,2.4-0.2c0.8,0,1,0.1,1.4,0.1c1,0.2,0.6,1.1,0.6,3.2c0,0.7-0.1,1.6,0.4,1.9
			c0.2,0.1,0.7,0,2-2.2c0,0,0.6-1,1.1-2.3C14.9,0.8,15,0.7,15,0.7s0.2-0.1,0.4-0.1l2.9,0c0.9-0.1,1,0.3,1,0.3
			C19.5,1.3,19,2.3,17.8,3.9z"/>
	</g>
</svg>
